 <svg xmlns="http://www.w3.org/2000/svg" width="13" height="13" fill="none" viewBox="0 0 13 13">
  <path fill="#000" fill-rule="evenodd" d="M6.4799 0C2.8889 0 0 2.889 0 6.4799c0 2.862 1.863 5.2919 4.428 6.1559.324.054.432-.135.432-.324v-1.107c-1.809.405-2.187-.864-2.187-.864-.297-.756-.729-.945-.729-.945-.594-.405.054-.405.054-.405.648.054.999.675.999.675.567.999 1.512.702 1.89.54.054-.432.216-.702.405-.864-1.431-.162-2.943-.729-2.943-3.2129 0-.702.243-1.296.675-1.728-.054-.162-.297-.81.054-1.728 0 0 .54-.162 1.782.675.513-.135 1.0799-.216 1.6199-.216s1.107.081 1.62.216c1.242-.837 1.782-.675 1.782-.675.3509.891.1349 1.539.054 1.728.4049.459.6749 1.026.6749 1.728 0 2.484-1.512 3.024-2.97 3.186.243.189.432.594.432 1.1879v1.782c0 .162.108.378.459.324 2.565-.837 4.428-3.267 4.428-6.1289C12.9598 2.8889 10.0708 0 6.4799 0" clip-rule="evenodd"/>
</svg>