<svg width="194" height="32" fill="none" xmlns="http://www.w3.org/2000/svg"><g clip-path="url(#prefix__clip0_22_367)"><path fill-rule="evenodd" clip-rule="evenodd" d="M0 .902l2.932 3.306v24.203L.76 31.577l13.31.02-2.4-2.913-.249-8.716 12.834.07c3.89-1.296 7.888-4.056 8.08-9.638-.061-5.41-3.364-8.88-7.198-9.57L0 .903zM10.945 2.45v15.548l9.846.07c2.24-1.806 3.939-3.19 3.87-7.527-.031-3.537-.778-6.62-4.074-8.09l-9.642-.001zM38.494.725l2.932 3.308v24.202l-2.173 3.168 13.308.02-2.399-2.915-.249-8.716h.054l13.75 11.729 11.41-.094-10.414-9.008h-8.694l-3.065-2.61 9.792.053c3.89-1.295 7.888-4.056 8.081-9.638-.06-5.409-3.363-8.879-7.198-9.568l-25.135.07zm10.944 1.548v15.548l9.846.071c2.241-1.806 3.939-3.19 3.87-7.528-.031-3.536-.778-6.621-4.074-8.09h-9.642zM86.113.691H97.59l14.939 27.72c.646 2.14 2.58 1.876 3.87 2.814h-14.463l2.173-.68-.136-2.063-3.735-5.98-12.698.07-2.716 5.77c-.09.656-.792 1.154-.272 1.97l1.02.984-6.248-.141 2.717-.844 10.252-21.6V7.235l-4.331-5.779-1.848-.764zm2.229 19.907l5.274-9.986 5.491 9.93-10.765.056zM163.715.75h11.475l14.939 27.72c.647 2.14 2.58 1.877 3.871 2.815h-14.464l2.173-.681-.136-2.064-3.734-5.98-12.698.072-2.716 5.768c-.092.657-.793 1.155-.273 1.97l1.019.985-6.246-.14 2.717-.844 10.252-21.6V7.293l-4.332-5.777-1.847-.765zm2.229 19.908l5.274-9.985 5.491 9.927-10.765.058zM120.367.402l20.443.113c6.584 1.542 10.772 5.564 12.071 12.58l-.055 5.472c-1.2 6.252-5.133 10.565-12.07 12.748l-20.498.058-.003-.662c3.117-.236 3.366-.591 3.374-2.441V3.335c-.035-1.368-.309-2.22-3.317-2.313l.055-.62zm11.621 2.134l-.02 26.977c2.696.01 5.035.262 6.357-.412 2.994-1.368 4.385-3.468 4.512-5.441l-.072-15.93c.001-2.548-2.765-4.347-4.361-4.816-1.142-.423-3.421-.44-6.416-.378z" fill="#fff" stroke="#fff" stroke-width="1.024" stroke-miterlimit="2.613"/></g><defs><clipPath id="prefix__clip0_22_367"><path fill="#fff" d="M0 0h194v32H0z"/></clipPath></defs></svg>