<svg xmlns="http://www.w3.org/2000/svg" width="14" height="14" fill="none" viewBox="0 0 14 14">
  <path fill="#000" d="M6.77419 1.22064c1.80871 0 2.02291.00678 2.73742.03936a3.7584 3.7584 0 0 1 1.25809.23323c.2922.11269.5576.28532.779.50677.2215.22145.3941.48683.5068.77903.1491.40294.228.82846.2332 1.25807.0323.71451.0394.92871.0394 2.73742 0 1.8087-.0068 2.0229-.0394 2.73741a3.756 3.756 0 0 1-.2332 1.25807c-.1127.2922-.2853.5576-.5068.779-.2214.2215-.4868.3941-.779.5068-.403.1491-.82848.228-1.25809.2332-.71419.0323-.92838.0394-2.73742.0394-1.80903 0-2.02322-.0068-2.73742-.0394-.4296-.0052-.85512-.0841-1.25806-.2332-.29221-.1127-.55758-.2853-.77903-.5068-.22146-.2214-.39409-.4868-.50678-.779a3.7578 3.7578 0 0 1-.23322-1.25807c-.03226-.71451-.03936-.92871-.03936-2.73741 0-1.80871.00678-2.02291.03936-2.73742a3.758 3.758 0 0 1 .23322-1.25807A2.24315 2.24315 0 0 1 1.99968 2a2.2432 2.2432 0 0 1 .77903-.50677A3.758 3.758 0 0 1 4.03677 1.26c.71452-.03226.92871-.03936 2.73742-.03936m0-1.22064c-1.83871 0-2.07032.007742-2.7929.040645a4.9735 4.9735 0 0 0-1.64516.314839A3.3183 3.3183 0 0 0 1.1371 1.1371a3.3183 3.3183 0 0 0-.782261 1.19967A4.9736 4.9736 0 0 0 .04 3.98194C.007742 4.70387 0 4.93548 0 6.77419S.007742 8.84452.040645 9.5671a4.9742 4.9742 0 0 0 .314839 1.6452c.170132.452.436878.8614.781616 1.1996.33825.3448.74767.6115 1.19967.7816.52665.1972 1.08292.3037 1.64517.3149.72258.0322.95322.0406 2.7929.0406s2.07032-.0077 2.7929-.0406a4.9737 4.9737 0 0 0 1.64516-.3149c.4499-.1743.8584-.4407 1.1994-.7819.3411-.3413.6072-.75.7813-1.2.1971-.5266.3036-1.0829.3148-1.64515.0322-.72194.04-.95355.04-2.79226s-.0078-2.07032-.0407-2.7929c-.0111-.56224-.1176-1.11852-.3148-1.64516-.1701-.45201-.4369-.86143-.7816-1.19968-.3383-.344734-.7477-.61148-1.1997-.781611A4.9732 4.9732 0 0 0 9.56645.04C8.84452.007742 8.6129 0 6.77419 0"/>
  <path fill="#000" d="M6.77559 3.29688c-.68803 0-1.3606.20402-1.93267.58626-.57207.38225-1.01795.92555-1.28124 1.5612-.2633.63565-.33219 1.3351-.19796 2.00991.13423.6748.46554 1.29465.95205 1.78115.4865.48651 1.10635.8178 1.78115.9521.67481.1342 1.37426.0653 2.00991-.19801.63565-.26329 1.17895-.70917 1.5612-1.28124.38227-.57207.58627-1.24464.58627-1.93267 0-.92261-.36651-1.80743-1.0189-2.45981-.65238-.65239-1.5372-1.01889-2.45981-1.01889m0 5.73677c-.44661 0-.88318-.13243-1.25452-.38055-.37133-.24812-.66076-.60078-.83166-1.01339a2.25803 2.25803 0 0 1-.1285-1.30465 2.25815 2.25815 0 0 1 .61798-1.15617 2.25815 2.25815 0 0 1 1.15617-.61798 2.2581 2.2581 0 0 1 1.30465.12849 2.25806 2.25806 0 0 1 1.01339.83167 2.25806 2.25806 0 0 1 .38055 1.25451c0 .59888-.2379 1.17323-.66137 1.5967s-.99782.66137-1.59669.66137M10.391 3.97151c.449 0 .8129-.36395.8129-.8129 0-.44896-.3639-.81291-.8129-.81291-.44893 0-.81288.36395-.81288.81291 0 .44895.36395.8129.81288.8129"/>
</svg>