<svg xmlns="http://www.w3.org/2000/svg" width="159" height="24" fill="none" viewBox="0 0 159 24">
  <path fill="currentColor" d="M11.387 23.893C3.653 23.867 0 21.467.187 15.653h6.64c.08 1.52 1.36 2.454 4.56 2.48 2.826.027 4.133-.773 4.133-1.813 0-.72-.4-1.467-2.587-1.787l-2.88-.453C5.813 13.387.72 12.88.72 7.147.72 2.72 4.32 0 11.44 0c6.427 0 10.907 1.787 10.773 8.187h-6.586c-.267-1.494-1.52-2.427-4.347-2.427-2.453 0-3.467.747-3.467 1.76 0 .64.4 1.413 2.107 1.68l2.373.4c4.454.747 10.56.88 10.56 7.013 0 4.88-3.786 7.307-11.466 7.28M40.33.747h7.387v22.4H40.33V15.04h-8.693v8.107H24.25V.747h7.387v8.106h8.693zm21.557 23.146c-7.706 0-12.693-4.773-12.693-11.946C49.195 4.773 54.182 0 61.888 0s12.694 4.773 12.694 11.947-4.987 11.946-12.694 11.946m0-6.373c2.934 0 5.36-2.027 5.36-5.573s-2.426-5.574-5.36-5.574c-2.933 0-5.36 2.027-5.36 5.574s2.427 5.573 5.36 5.573m14.176 5.627V.747h12.72c6.106 0 9.733 2.72 9.733 8.746 0 6.027-3.627 8.747-9.707 8.747h-5.36v4.907zm7.386-11.04h4.694c1.786 0 2.933-.88 2.933-2.614S89.93 6.88 88.17 6.88h-4.72zm18.763 11.466c-2 0-3.68-1.653-3.68-3.626 0-1.974 1.68-3.627 3.68-3.627s3.68 1.653 3.68 3.627-1.68 3.626-3.68 3.626m17.725.32c-7.547 0-12.587-4.773-12.587-11.946 0-7.174 5.04-11.947 12.587-11.947 5.467 0 11.067 2.4 11.813 9.973h-7.04c-.613-2.453-2.346-3.6-4.773-3.6-2.933 0-5.253 2.187-5.253 5.574s2.32 5.573 5.253 5.573c2.427 0 4.16-1.147 4.773-3.653h7.04c-.746 7.626-6.293 10.026-11.813 10.026m25.857 0c-7.707 0-12.694-4.773-12.694-11.946C133.101 4.773 138.088 0 145.795 0c7.706 0 12.693 4.773 12.693 11.947s-4.987 11.946-12.693 11.946m0-6.373c2.933 0 5.36-2.027 5.36-5.573s-2.427-5.574-5.36-5.574-5.36 2.027-5.36 5.574 2.426 5.573 5.36 5.573"/>
</svg>