<svg xmlns="http://www.w3.org/2000/svg" style="display: none;">

 <symbol id="icon-close" fill="none" viewBox="0 0 20 20">
    <path fill="currentColor"
      d="M16.288 14.962a.939.939 0 1 1-1.328 1.328L10 11.328l-4.962 4.96A.94.94 0 0 1 3.71 14.96L8.672 10l-4.96-4.962A.94.94 0 1 1 5.04 3.71L10 8.672l4.962-4.963a.94.94 0 1 1 1.328 1.328L11.328 10z" />
  </symbol>
  <symbol id="icon-search" viewBox="0 0 24 24">
    <path fill="currentColor" fill-opacity=".4"
      d="m21.8 20.2-4.46-4.45a8.64 8.64 0 1 0-1.59 1.6l4.46 4.45a1.13 1.13 0 1 0 1.59-1.6M4.12 10.5a6.37 6.37 0 1 1 12.75 0 6.37 6.37 0 0 1-12.75 0" />
  </symbol>
   <symbol id="icon-profile" fill="none" viewBox="0 0 24 24">
    <path fill="currentColor"
      d="M12 1.875A10.125 10.125 0 1 0 22.125 12 10.137 10.137 0 0 0 12 1.875M7.46 18.428a5.625 5.625 0 0 1 9.08 0 7.85 7.85 0 0 1-9.08 0m1.915-7.178a2.625 2.625 0 1 1 5.25 0 2.625 2.625 0 0 1-5.25 0m8.813 5.62a7.8 7.8 0 0 0-2.72-2.196 4.875 4.875 0 1 0-6.937 0 7.8 7.8 0 0 0-2.719 2.195 7.875 7.875 0 1 1 12.366 0z" />
  </symbol>
    <symbol id="icon-basket" fill="none" viewBox="0 0 24 24">
    <path fill="currentColor"
      d="M9.375 20.25a1.875 1.875 0 1 1-3.75 0 1.875 1.875 0 0 1 3.75 0m7.875-1.875a1.875 1.875 0 1 0 0 3.75 1.875 1.875 0 0 0 0-3.75m4.825-11.294-2.558 8.316a2.61 2.61 0 0 1-2.51 1.853H7.775a2.64 2.64 0 0 1-2.525-1.904L2.045 4.125h-.92a1.125 1.125 0 0 1 0-2.25h1.202a1.88 1.88 0 0 1 1.803 1.36l.683 2.39H21a1.125 1.125 0 0 1 1.075 1.456m-2.598.794H5.455l1.959 6.853a.375.375 0 0 0 .36.272h9.233a.375.375 0 0 0 .36-.264z" />
  </symbol>
  <!-- socials -->
  <symbol id="icon-twitter" fill="none" viewBox="0 0 12 10">
    <path fill="currentColor"
      d="M11.174 1.048a5 5 0 0 1-1.327.372c.466-.28.838-.722 1.001-1.257a5 5 0 0 1-1.467.559A2.32 2.32 0 0 0 7.705 0a2.285 2.285 0 0 0-2.281 2.281c0 .187.023.35.07.512A6.52 6.52 0 0 1 .768.396c-.186.349-.302.721-.302 1.14 0 .792.395 1.49 1.024 1.91a2.7 2.7 0 0 1-1.048-.28v.023a2.3 2.3 0 0 0 1.84 2.258c-.187.047-.396.07-.606.07-.14 0-.303-.023-.442-.046.302.907 1.14 1.583 2.141 1.583a4.66 4.66 0 0 1-2.84.977c-.186 0-.372 0-.535-.023a6.5 6.5 0 0 0 3.515 1.024c4.214 0 6.518-3.492 6.518-6.518v-.302a4.2 4.2 0 0 0 1.14-1.164" />
  </symbol>

<symbol id="icon-facebook" viewBox="0 0 7 13" fill="none">
  <path fill="currentColor" d="M1.86888 12.1749V6.62136H0V4.45703h1.86888V2.8609C1.86888 1.00861 3.0002 0 4.65258 0c.7915 0 1.47176.05893 1.67.08527v1.93575l-1.14601.00052c-.89865 0-1.07265.42703-1.07265 1.05366v1.38183h2.1432l-.27905 2.16433H4.10391v5.55354z"/>
</symbol>
<symbol id="icon-instagram" fill="none" viewBox="0 0 14 14">
  <path fill="currentColor" d="M6.77419 1.22064c1.80871 0 2.02291.00678 2.73742.03936a3.758 3.758 0 0 1 1.25809.23323c.2922.11269.5576.28532.779.50677.2215.22145.3941.48683.5068.77903a3.756 3.756 0 0 1 .2332 1.25807c.0323.71451.0394.92871.0394 2.73742 0 1.8087-.0068 2.0229-.0394 2.73741a3.756 3.756 0 0 1-.2332 1.25807 2.242 2.242 0 0 1-.5068.779 2.242 2.242 0 0 1-.779.5068 3.757 3.757 0 0 1-1.25809.2332c-.71419.0323-.92838.0394-2.73742.0394-1.80903 0-2.02322-.0068-2.73742-.0394a3.756 3.756 0 0 1-1.25806-.2332 2.243 2.243 0 0 1-.77903-.5068 2.243 2.243 0 0 1-.50678-.779 3.758 3.758 0 0 1-.23322-1.25807c-.03226-.71451-.03936-.92871-.03936-2.73741 0-1.80871.00678-2.02291.03936-2.73742a3.758 3.758 0 0 1 .23322-1.25807 2.2432 2.2432 0 0 1 1.28581-1.2858A3.758 3.758 0 0 1 4.03677 1.26c.71452-.03226.92871-.03936 2.73742-.03936m0-1.22064c-1.83871 0-2.07032.00774-2.7929.04065a4.974 4.974 0 0 0-1.64516.31483 3.318 3.318 0 0 0-1.19903.78162 3.318 3.318 0 0 0-.78226 1.19967A4.974 4.974 0 0 0 .04 3.98194C.00774 4.70387 0 4.93548 0 6.77419S.00774 8.84452.04065 9.5671a4.974 4.974 0 0 0 .31483 1.6452 3.318 3.318 0 0 0 .78162 1.1996 3.317 3.317 0 0 0 1.19967.7816 4.974 4.974 0 0 0 1.64517.3149c.72258.0322.95322.0406 2.7929.0406s2.07032-.0077 2.7929-.0406a4.974 4.974 0 0 0 1.64516-.3149 3.46743 3.46743 0 0 0 1.9807-1.9819 4.976 4.976 0 0 0 .3148-1.64515c.0322-.72194.04-.95355.04-2.79226s-.0078-2.07032-.0407-2.7929a4.971 4.971 0 0 0-.3148-1.64516 3.318 3.318 0 0 0-.7816-1.19968 3.319 3.319 0 0 0-1.1997-.78161A4.973 4.973 0 0 0 9.56645.04C8.84452.00774 8.6129 0 6.77419 0"/>
  <path fill="currentColor" d="M6.77559 3.29688a3.4787 3.4787 0 0 0-3.21391 2.14746 3.47865 3.47865 0 0 0 .75409 3.79106 3.4793 3.4793 0 0 0 1.78115.9521 3.47883 3.47883 0 0 0 4.15738-3.41192 3.4787 3.4787 0 0 0-1.0189-2.45981 3.4787 3.4787 0 0 0-2.45981-1.01889m0 5.73677a2.25807 2.25807 0 1 1-.00002-4.51614 2.25807 2.25807 0 0 1 .00002 4.51614M10.391 3.97151c.449 0 .8129-.36395.8129-.8129 0-.44896-.3639-.81291-.8129-.81291-.44893 0-.81288.36395-.81288.81291 0 .44895.36395.8129.81288.8129"/>
</symbol>
<symbol id="icon-github" fill="none" viewBox="0 0 13 13">
  <path fill="currentColor" fill-rule="evenodd" d="M6.4799 0C2.88895 0 0 2.88895 0 6.4799c0 2.86195 1.86297 5.2919 4.42793 6.1559.32399.054.43199-.135.43199-.324v-1.107c-1.80897.405-2.18696-.864-2.18696-.864-.297-.75595-.72899-.94495-.72899-.94495-.59399-.40499.054-.40499.054-.40499.64799.054.99898.67499.99898.67499.56699.99895 1.51198.70195 1.88997.53995.054-.43196.216-.70195.40499-.86395-1.43097-.162-2.94295-.72899-2.94295-3.21295 0-.70199.243-1.29598.67499-1.72797-.054-.162-.29699-.80999.054-1.72797 0 0 .53999-.162 1.78197.67499.51299-.135 1.07998-.216 1.61998-.216.53999 0 1.10698.081 1.61997.216 1.24198-.83699 1.78197-.67499 1.78197-.67499.35096.89098.13496 1.53897.054 1.72797.40496.45899.67496 1.02598.67496 1.72797 0 2.48396-1.51195 3.02395-2.96992 3.18595.24299.189.43199.59399.43199 1.18795v1.782c0 .162.108.378.45899.324 2.56494-.837 4.42794-3.26695 4.42794-6.1289C12.9598 2.88895 10.0708 0 6.4799 0" clip-rule="evenodd"/>
</symbol>

<symbol id="partner-visa"  fill="none" viewBox="0 0 33 11">
  <path fill="#1434cb" d="m16.1111.186-2.1742 10.1635h-2.6291L13.4823.1859zm11.0617 6.5626 1.3842-3.8168.7965 3.8168zm2.9334 3.6009h2.4319L30.416.1859h-2.2447c-.5044 0-.93.2934-1.1195.7457l-3.9444 9.4179h2.761l.5481-1.5177h3.3732zM23.2444 7.031c.0113-2.6825-3.7096-2.8301-3.6839-4.0284.0077-.3651.3555-.7524 1.115-.8518.3773-.0492 1.4147-.0869 2.5927.4552l.4613-2.1553C23.0968.221 22.2826 0 21.2699 0c-2.5985 0-4.4276 1.3816-4.443 3.36-.0165 1.463 1.3057 2.2794 2.3019 2.7658 1.0242.4983 1.3684.8174 1.3639 1.263-.0067.6822-.817.9827-1.573.9946-1.3221.0209-2.0893-.3568-2.7008-.6418l-.4764 2.227c.6141.2821 1.748.5272 2.9244.5398 2.7616 0 4.5685-1.3646 4.5775-3.4774M12.3542.186 8.0945 10.3494H5.3148l-2.096-8.1112c-.1274-.4996-.2381-.6823-.625-.893C1.9622 1.0027.9183.6807 0 .4813L.0627.1858h4.4737c.57 0 1.083.3796 1.2124 1.0362L6.856 7.1037 9.592.186z"/>
</symbol>
<symbol id="partner-mastercard" fill="none" viewBox="0 0 26 16">
  <path fill="#ff5f00" d="M16.1226 1.677H9.2593v12.3335h6.8633z"/>
  <path fill="#eb001b" d="M9.6951 7.8438A7.83 7.83 0 0 1 12.691 1.677 7.844 7.844 0 0 0 4.4156.7888a7.8437 7.8437 0 1 0 8.2754 13.2217 7.83 7.83 0 0 1-2.9959-6.1668"/>
  <path fill="#f79e1b" d="M25.3815 7.8438a7.8432 7.8432 0 0 1-12.6905 6.1667 7.846 7.846 0 0 0 2.9958-6.1668A7.846 7.846 0 0 0 12.691 1.677a7.843 7.843 0 0 1 8.2752-.8882 7.844 7.844 0 0 1 4.4153 7.055m-.7483 4.8604v-.2525h.1018v-.0515h-.2593v.0515h.1019v.2525zm.5034 0v-.3044h-.0795l-.0914.2094-.0914-.2094h-.0796v.3044h.0562v-.2297l.0857.198h.0582l.0857-.1985v.2302z"/>
</symbol>
<symbol id="partner-paypal" fill="none" viewBox="0 0 35 10">
  <path fill="#253b80" fill-rule="evenodd" d="M4.1463.001H1.4588a.3734.3734 0 0 0-.369.315L.0028 7.2069a.2237.2237 0 0 0 .2217.2586h1.283a.3734.3734 0 0 0 .369-.3155l.2932-1.8585a.373.373 0 0 1 .3686-.3155h.8507c1.7704 0 2.792-.8566 3.059-2.554.1202-.7426.005-1.3261-.3428-1.7349C5.7233.2384 5.0457.001 4.1462.001m.31 2.5167c-.147.9643-.8837.9643-1.5962.9643h-.4055l.2845-1.801a.224.224 0 0 1 .2212-.189h.1859c.4853 0 .9431 0 1.1797.2767.141.165.1843.4102.1304.749m7.7236-.0309h-1.287a.224.224 0 0 0-.2213.1891l-.057.3599-.09-.1304c-.2786-.4044-.8998-.5395-1.52-.5395-1.4222 0-2.6368 1.077-2.8734 2.5878-.123.7535.0518 1.4742.4794 1.9767.3922.462.9534.6546 1.621.6546 1.1459 0 1.7815-.7367 1.7815-.7367l-.0575.3576a.2238.2238 0 0 0 .2208.2593h1.1593a.3734.3734 0 0 0 .369-.3155l.6956-4.4043a.2232.2232 0 0 0-.2204-.2586m-1.794 2.5046c-.1242.7351-.7078 1.2286-1.452 1.2286-.3737 0-.6724-.1198-.8641-.347-.1903-.2254-.2626-.5465-.202-.904.116-.729.7093-1.2385 1.4422-1.2385.3654 0 .6625.1213.8582.3504.196.2315.2739.5545.2177.9105m7.3549-2.5048h1.2933c.1811 0 .2868.2031.1839.3517l-4.3014 6.2081a.373.373 0 0 1-.307.1604h-1.2917c-.1819 0-.2881-.2047-.1828-.3537l1.3394-1.8903-1.4245-4.18a.224.224 0 0 1 .2126-.2962h1.2708a.3745.3745 0 0 1 .3584.2664l.756 2.5246 1.7838-2.6271a.375.375 0 0 1 .3092-.1639" clip-rule="evenodd"/>
  <path fill="#179bd7" fill-rule="evenodd" d="m31.7633 7.2062 1.103-7.0167A.2245.2245 0 0 1 33.0872 0h1.2417a.224.224 0 0 1 .2208.259L33.462 7.1492a.373.373 0 0 1-.369.3155h-1.1089a.2236.2236 0 0 1-.2208-.2586M23.3164.0004h-2.688a.3734.3734 0 0 0-.3686.315l-1.087 6.8908a.2236.2236 0 0 0 .221.2586h1.3792a.261.261 0 0 0 .2578-.2208l.3085-1.9532a.373.373 0 0 1 .3686-.3155h.8503c1.7708 0 2.7922-.8566 3.0594-2.554.1205-.7426.0047-1.3261-.343-1.7349-.3817-.4486-1.0588-.686-1.9582-.686m.31 2.5167c-.1465.9643-.8834.9643-1.5963.9643h-.4051l.2849-1.8009a.223.223 0 0 1 .2208-.189h.1859c.485 0 .9432 0 1.1796.2766.1412.1651.1841.4103.1302.749m7.7228-.0309h-1.286a.223.223 0 0 0-.221.1891l-.0569.3598-.0904-.1303c-.2786-.4044-.8994-.5395-1.5196-.5395-1.4222 0-2.6365 1.077-2.8731 2.5878-.1225.7535.0515 1.4741.479 1.9767.393.462.9535.6546 1.6211.6546 1.1458 0 1.7812-.7368 1.7812-.7368l-.0572.3577a.224.224 0 0 0 .2216.2593h1.1588a.3734.3734 0 0 0 .3686-.3155l.696-4.4043a.2244.2244 0 0 0-.2221-.2586m-1.7938 2.5046c-.1234.7351-.7077 1.2286-1.4521 1.2286-.373 0-.6723-.1198-.8641-.347-.1903-.2254-.2617-.5465-.2019-.904.1166-.729.7092-1.2385 1.4421-1.2385.3655 0 .6625.1213.8584.3504.1967.2315.2746.5544.2176.9105" clip-rule="evenodd"/>
</symbol>
<symbol id="partner-applepay" fill="none" viewBox="0 0 27 12">
  <path fill="#000008" d="M4.9923 1.445c.311-.389.522-.9113.4664-1.445-.4553.0226-1.0108.3003-1.3325.6896-.2887.3334-.5444.8776-.4777 1.3889.511.0443 1.0216-.2554 1.3438-.6335m.4606.7334c-.7422-.0443-1.3732.4212-1.7276.4212-.3546 0-.8973-.399-1.4843-.3882-.764.0112-1.473.4432-1.8607 1.1302-.7974 1.3745-.2104 3.4133.565 4.5327.3766.5538.8305 1.1636 1.4285 1.1417.565-.0222.7865-.3659 1.4733-.3659.6863 0 .8858.3659 1.484.3548.6202-.011 1.008-.554 1.3846-1.1084.432-.6313.6089-1.241.62-1.2744-.0112-.011-1.196-.4656-1.207-1.8287-.0113-1.1413.9302-1.6841.9745-1.7178-.5316-.7863-1.3623-.875-1.6503-.8973m6.462-1.5445c1.6131 0 2.7363 1.1119 2.7363 2.7307 0 1.6247-1.1463 2.7423-2.7767 2.7423h-1.786V8.947H8.7982V.6338zm-1.8264 4.39h1.4806c1.1235 0 1.7629-.605 1.7629-1.6535s-.6394-1.6476-1.7571-1.6476h-1.4864zm4.8998 2.2007c0-1.0601.8123-1.711 2.2527-1.7918l1.6591-.0979v-.4666c0-.674-.4552-1.0773-1.2155-1.0773-.7203 0-1.1697.3456-1.279.8872h-1.1752c.0691-1.0947 1.0023-1.9012 2.5002-1.9012 1.4691 0 2.408.7778 2.408 1.9933V8.947h-1.1925v-.9967h-.0287c-.3514.6741-1.1177 1.1004-1.9126 1.1004-1.1868 0-2.0165-.7374-2.0165-1.8262m3.9118-.5473V6.199l-1.4922.0922c-.7432.0519-1.1637.3802-1.1637.8987 0 .53.4379.8757 1.1062.8757.8698 0 1.5497-.5992 1.5497-1.3884m2.3644 4.4994v-1.0083c.0921.023.2994.023.4032.023.5761 0 .8872-.2419 1.0772-.864 0-.0116.1096-.3687.1096-.3745l-2.1891-6.0664h1.3479l1.5326 4.9315h.0229l1.5326-4.9315h1.3135l-2.2701 6.3774c-.5182 1.4692-1.1174 1.9415-2.3733 1.9415-.1038 0-.4149-.0115-.507-.0287"/>
</symbol>
<symbol id="partner-googlepay" fill="none" viewBox="0 0 29 12">
  <path fill="#3c4043" d="M13.3296 8.7535h-1.0485V.5952h2.7795c.7044 0 1.3051.2348 1.7966.7044q.7535.7045.7535 1.7202c0 .6935-.2512 1.2668-.7535 1.731-.486.4641-1.0867.6935-1.7966.6935h-1.731zm0-7.1535v2.845h1.7528c.415 0 .7645-.142 1.0376-.4205.2785-.2785.4204-.617.4204-.9993 0-.3768-.1419-.7099-.4204-.9884-.2731-.2894-.6171-.4314-1.0376-.4314h-1.7528zm7.0223 1.387q1.1631 0 1.8347.6225t.6717 1.7037v3.4403h-.9993V7.978h-.0437c-.4314.639-1.0102.9557-1.731.9557-.6171 0-1.1304-.1802-1.5454-.5461s-.6225-.8191-.6225-1.3652q0-.8682.6553-1.376c.4368-.344 1.0211-.5134 1.7474-.5134.6225 0 1.1358.1147 1.5344.344v-.2402c0-.3659-.1419-.6717-.4314-.9283s-.6279-.3823-1.0156-.3823c-.5843 0-1.0485.2457-1.387.7427l-.9229-.5789c.5079-.7371 1.2614-1.103 2.2553-1.103m-1.3543 4.0518c0 .273.1147.5024.3495.6826.2293.1802.5024.273.8136.273q.6636 0 1.1795-.4914c.3441-.3277.5188-.71.5188-1.1522-.3276-.2567-.7809-.3877-1.3652-.3877-.4259 0-.7808.1037-1.0648.3057-.2894.213-.4314.4697-.4314.77m9.5617-3.8716-3.4948 8.0382h-1.0813l1.2997-2.8123-2.3044-5.2259h1.1413l1.66 4.0082h.0218l1.6164-4.0082z"/>
  <path fill="#4285f4" d="M9.1592 4.7836c0-.3419-.0306-.669-.0874-.9835H4.6771v1.802l2.531.0005c-.1026.5996-.433 1.1108-.9392 1.4515v1.1691h1.5066c.8797-.8142 1.3837-2.0177 1.3837-3.4396"/>
  <path fill="#34a853" d="M6.2694 7.0542c-.4194.2828-.9594.4483-1.5912.4483-1.2205 0-2.2558-.8224-2.6266-1.931H.4976v1.2058C1.2674 8.3052 2.85 9.3536 4.6781 9.3536c1.2636 0 2.3251-.4155 3.0978-1.1309z"/>
  <path fill="#fabb05" d="M1.9052 4.677c0-.3112.0519-.612.1464-.895V2.5764H.4975A4.654 4.654 0 0 0 0 4.6771a4.66 4.66 0 0 0 .4975 2.1007l1.554-1.2057a2.82 2.82 0 0 1-.1463-.895"/>
  <path fill="#e94235" d="M4.6782 1.8512c.6897 0 1.3073.2375 1.7949.7017l1.3351-1.334C6.9973.4635 5.9402 0 4.6782 0 2.8505 0 1.2674 1.0484.4975 2.5763l1.554 1.2058c.3708-1.1086 1.4062-1.931 2.6267-1.931"/>
</symbol>
</svg>