<svg xmlns="http://www.w3.org/2000/svg" style="display: none;">
<symbol id="icon-logo" xmlns="http://www.w3.org/2000/svg" fill="none" viewBox="0 0 159 24">
  <path fill="currentColor" d="M11.3867 23.8933C3.65333 23.8667 0 21.4667.18667 15.6533h6.64c.08 1.52 1.36 2.4534 4.56003 2.48C14.2133 18.16 15.52 17.36 15.52 16.32c0-.72-.4-1.4667-2.5867-1.7867l-2.88-.4533C5.81333 13.3867.72 12.88.72 7.14667.72 2.72 4.32 0 11.44 0c6.4267 0 10.9067 1.78667 10.7733 8.18667h-6.5866C15.36 6.69333 14.1067 5.76 11.28 5.76c-2.45333 0-3.46667.74667-3.46667 1.76 0 .64.4 1.41333 2.10667 1.68l2.3733.4c4.4534.7467 10.56.88 10.56 7.0133 0 4.88-3.7866 7.3067-11.4666 7.28M40.3313.74667h7.3866V23.1467h-7.3866V15.04h-8.6934v8.1067h-7.3866V.74667h7.3866v8.10666h8.6934zm21.557 23.14663c-7.7066 0-12.6933-4.7733-12.6933-11.9466C49.195 4.77333 54.1817 0 61.8883 0c7.7067 0 12.6934 4.77333 12.6934 11.9467 0 7.1733-4.9867 11.9466-12.6934 11.9466m0-6.3733c2.9334 0 5.36-2.0267 5.36-5.5733 0-3.5467-2.4266-5.57337-5.36-5.57337-2.9333 0-5.36 2.02667-5.36 5.57337 0 3.5466 2.4267 5.5733 5.36 5.5733m14.1755 5.6267V.74667h12.72c6.1066 0 9.7333 2.72 9.7333 8.74666 0 6.02667-3.6267 8.74667-9.7067 8.74667h-5.36v4.9067zm7.3866-11.04h4.6934c1.7866 0 2.9333-.88 2.9333-2.61337C91.0771 7.76 89.9304 6.88 88.1704 6.88h-4.72zm18.7626 11.4666c-2 0-3.6805-1.6533-3.6805-3.6266 0-1.9734 1.6805-3.6267 3.6805-3.6267s3.68 1.6533 3.68 3.6267c0 1.9733-1.68 3.6266-3.68 3.6266m17.725.32c-7.547 0-12.587-4.7733-12.587-11.9466C107.351 4.77333 112.391 0 119.938 0c5.467 0 11.067 2.4 11.813 9.97333h-7.04c-.613-2.45333-2.346-3.6-4.773-3.6-2.933 0-5.253 2.18667-5.253 5.57337 0 3.3866 2.32 5.5733 5.253 5.5733 2.427 0 4.16-1.1467 4.773-3.6533h7.04c-.746 7.6266-6.293 10.0266-11.813 10.0266m25.857 0c-7.707 0-12.694-4.7733-12.694-11.9466C133.101 4.77333 138.088 0 145.795 0c7.706 0 12.693 4.77333 12.693 11.9467 0 7.1733-4.987 11.9466-12.693 11.9466m0-6.3733c2.933 0 5.36-2.0267 5.36-5.5733 0-3.5467-2.427-5.57337-5.36-5.57337-2.934 0-5.36 2.02667-5.36 5.57337 0 3.5466 2.426 5.5733 5.36 5.5733"/>
</symbol>
</svg>
