<svg xmlns="http://www.w3.org/2000/svg" style="display: none;">

 <symbol id="icon-close" fill="none" viewBox="0 0 20 20">
    <path fill="currentColor"
      d="M16.288 14.962a.939.939 0 1 1-1.328 1.328L10 11.328l-4.962 4.96A.94.94 0 0 1 3.71 14.96L8.672 10l-4.96-4.962A.94.94 0 1 1 5.04 3.71L10 8.672l4.962-4.963a.94.94 0 1 1 1.328 1.328L11.328 10z" />
  </symbol>
  <symbol id="icon-search" viewBox="0 0 24 24">
    <path fill="currentColor" fill-opacity=""
      d="m21.8 20.2-4.46-4.45a8.64 8.64 0 1 0-1.59 1.6l4.46 4.45a1.13 1.13 0 1 0 1.59-1.6M4.12 10.5a6.37 6.37 0 1 1 12.75 0 6.37 6.37 0 0 1-12.75 0" />
  </symbol>
   <symbol id="icon-profile" fill="none" viewBox="0 0 24 24">
    <path fill="currentColor"
      d="M12 1.875A10.125 10.125 0 1 0 22.125 12 10.137 10.137 0 0 0 12 1.875M7.46 18.428a5.625 5.625 0 0 1 9.08 0 7.85 7.85 0 0 1-9.08 0m1.915-7.178a2.625 2.625 0 1 1 5.25 0 2.625 2.625 0 0 1-5.25 0m8.813 5.62a7.8 7.8 0 0 0-2.72-2.196 4.875 4.875 0 1 0-6.937 0 7.8 7.8 0 0 0-2.719 2.195 7.875 7.875 0 1 1 12.366 0z" />
  </symbol>
    <symbol id="icon-basket" fill="none" viewBox="0 0 24 24">
    <path fill="currentColor"
      d="M9.375 20.25a1.875 1.875 0 1 1-3.75 0 1.875 1.875 0 0 1 3.75 0m7.875-1.875a1.875 1.875 0 1 0 0 3.75 1.875 1.875 0 0 0 0-3.75m4.825-11.294-2.558 8.316a2.61 2.61 0 0 1-2.51 1.853H7.775a2.64 2.64 0 0 1-2.525-1.904L2.045 4.125h-.92a1.125 1.125 0 0 1 0-2.25h1.202a1.88 1.88 0 0 1 1.803 1.36l.683 2.39H21a1.125 1.125 0 0 1 1.075 1.456m-2.598.794H5.455l1.959 6.853a.375.375 0 0 0 .36.272h9.233a.375.375 0 0 0 .36-.264z" />
  </symbol>
  <!-- socials -->
  <symbol id="icon-twitter" fill="none" viewBox="0 0 12 10">
    <path fill="currentColor"
      d="M11.174 1.048a5 5 0 0 1-1.327.372c.466-.28.838-.722 1.001-1.257a5 5 0 0 1-1.467.559A2.32 2.32 0 0 0 7.705 0a2.285 2.285 0 0 0-2.281 2.281c0 .187.023.35.07.512A6.52 6.52 0 0 1 .768.396c-.186.349-.302.721-.302 1.14 0 .792.395 1.49 1.024 1.91a2.7 2.7 0 0 1-1.048-.28v.023a2.3 2.3 0 0 0 1.84 2.258c-.187.047-.396.07-.606.07-.14 0-.303-.023-.442-.046.302.907 1.14 1.583 2.141 1.583a4.66 4.66 0 0 1-2.84.977c-.186 0-.372 0-.535-.023a6.5 6.5 0 0 0 3.515 1.024c4.214 0 6.518-3.492 6.518-6.518v-.302a4.2 4.2 0 0 0 1.14-1.164" />
  </symbol>

<symbol id="icon-facebook" viewBox="0 0 7 13" fill="none">
  <path fill="currentColor" d="M1.86888 12.1749V6.62136H0V4.45703h1.86888V2.8609C1.86888 1.00861 3.0002 0 4.65258 0c.7915 0 1.47176.05893 1.67.08527v1.93575l-1.14601.00052c-.89865 0-1.07265.42703-1.07265 1.05366v1.38183h2.1432l-.27905 2.16433H4.10391v5.55354z"/>
</symbol>
<symbol id="icon-instagram" fill="none" viewBox="0 0 14 14">
  <path fill="currentColor" d="M6.77419 1.22064c1.80871 0 2.02291.00678 2.73742.03936a3.758 3.758 0 0 1 1.25809.23323c.2922.11269.5576.28532.779.50677.2215.22145.3941.48683.5068.77903a3.756 3.756 0 0 1 .2332 1.25807c.0323.71451.0394.92871.0394 2.73742 0 1.8087-.0068 2.0229-.0394 2.73741a3.756 3.756 0 0 1-.2332 1.25807 2.242 2.242 0 0 1-.5068.779 2.242 2.242 0 0 1-.779.5068 3.757 3.757 0 0 1-1.25809.2332c-.71419.0323-.92838.0394-2.73742.0394-1.80903 0-2.02322-.0068-2.73742-.0394a3.756 3.756 0 0 1-1.25806-.2332 2.243 2.243 0 0 1-.77903-.5068 2.243 2.243 0 0 1-.50678-.779 3.758 3.758 0 0 1-.23322-1.25807c-.03226-.71451-.03936-.92871-.03936-2.73741 0-1.80871.00678-2.02291.03936-2.73742a3.758 3.758 0 0 1 .23322-1.25807 2.2432 2.2432 0 0 1 1.28581-1.2858A3.758 3.758 0 0 1 4.03677 1.26c.71452-.03226.92871-.03936 2.73742-.03936m0-1.22064c-1.83871 0-2.07032.00774-2.7929.04065a4.974 4.974 0 0 0-1.64516.31483 3.318 3.318 0 0 0-1.19903.78162 3.318 3.318 0 0 0-.78226 1.19967A4.974 4.974 0 0 0 .04 3.98194C.00774 4.70387 0 4.93548 0 6.77419S.00774 8.84452.04065 9.5671a4.974 4.974 0 0 0 .31483 1.6452 3.318 3.318 0 0 0 .78162 1.1996 3.317 3.317 0 0 0 1.19967.7816 4.974 4.974 0 0 0 1.64517.3149c.72258.0322.95322.0406 2.7929.0406s2.07032-.0077 2.7929-.0406a4.974 4.974 0 0 0 1.64516-.3149 3.46743 3.46743 0 0 0 1.9807-1.9819 4.976 4.976 0 0 0 .3148-1.64515c.0322-.72194.04-.95355.04-2.79226s-.0078-2.07032-.0407-2.7929a4.971 4.971 0 0 0-.3148-1.64516 3.318 3.318 0 0 0-.7816-1.19968 3.319 3.319 0 0 0-1.1997-.78161A4.973 4.973 0 0 0 9.56645.04C8.84452.00774 8.6129 0 6.77419 0"/>
  <path fill="currentColor" d="M6.77559 3.29688a3.4787 3.4787 0 0 0-3.21391 2.14746 3.47865 3.47865 0 0 0 .75409 3.79106 3.4793 3.4793 0 0 0 1.78115.9521 3.47883 3.47883 0 0 0 4.15738-3.41192 3.4787 3.4787 0 0 0-1.0189-2.45981 3.4787 3.4787 0 0 0-2.45981-1.01889m0 5.73677a2.25807 2.25807 0 1 1-.00002-4.51614 2.25807 2.25807 0 0 1 .00002 4.51614M10.391 3.97151c.449 0 .8129-.36395.8129-.8129 0-.44896-.3639-.81291-.8129-.81291-.44893 0-.81288.36395-.81288.81291 0 .44895.36395.8129.81288.8129"/>
</symbol>
<symbol id="icon-github" fill="none" viewBox="0 0 13 13">
  <path fill="currentColor" fill-rule="evenodd" d="M6.4799 0C2.88895 0 0 2.88895 0 6.4799c0 2.86195 1.86297 5.2919 4.42793 6.1559.32399.054.43199-.135.43199-.324v-1.107c-1.80897.405-2.18696-.864-2.18696-.864-.297-.75595-.72899-.94495-.72899-.94495-.59399-.40499.054-.40499.054-.40499.64799.054.99898.67499.99898.67499.56699.99895 1.51198.70195 1.88997.53995.054-.43196.216-.70195.40499-.86395-1.43097-.162-2.94295-.72899-2.94295-3.21295 0-.70199.243-1.29598.67499-1.72797-.054-.162-.29699-.80999.054-1.72797 0 0 .53999-.162 1.78197.67499.51299-.135 1.07998-.216 1.61998-.216.53999 0 1.10698.081 1.61997.216 1.24198-.83699 1.78197-.67499 1.78197-.67499.35096.89098.13496 1.53897.054 1.72797.40496.45899.67496 1.02598.67496 1.72797 0 2.48396-1.51195 3.02395-2.96992 3.18595.24299.189.43199.59399.43199 1.18795v1.782c0 .162.108.378.45899.324 2.56494-.837 4.42794-3.26695 4.42794-6.1289C12.9598 2.88895 10.0708 0 6.4799 0" clip-rule="evenodd"/>
</symbol>

<symbol id="partner-visa"  fill="none" viewBox="0 0 33 11">
  <path fill="#1434cb" d="m16.1111.186-2.1742 10.1635h-2.6291L13.4823.1859zm11.0617 6.5626 1.3842-3.8168.7965 3.8168zm2.9334 3.6009h2.4319L30.416.1859h-2.2447c-.5044 0-.93.2934-1.1195.7457l-3.9444 9.4179h2.761l.5481-1.5177h3.3732zM23.2444 7.031c.0113-2.6825-3.7096-2.8301-3.6839-4.0284.0077-.3651.3555-.7524 1.115-.8518.3773-.0492 1.4147-.0869 2.5927.4552l.4613-2.1553C23.0968.221 22.2826 0 21.2699 0c-2.5985 0-4.4276 1.3816-4.443 3.36-.0165 1.463 1.3057 2.2794 2.3019 2.7658 1.0242.4983 1.3684.8174 1.3639 1.263-.0067.6822-.817.9827-1.573.9946-1.3221.0209-2.0893-.3568-2.7008-.6418l-.4764 2.227c.6141.2821 1.748.5272 2.9244.5398 2.7616 0 4.5685-1.3646 4.5775-3.4774M12.3542.186 8.0945 10.3494H5.3148l-2.096-8.1112c-.1274-.4996-.2381-.6823-.625-.893C1.9622 1.0027.9183.6807 0 .4813L.0627.1858h4.4737c.57 0 1.083.3796 1.2124 1.0362L6.856 7.1037 9.592.186z"/>
</symbol>
<symbol id="partner-mastercard" fill="none" viewBox="0 0 26 16">
  <path fill="#ff5f00" d="M16.1226 1.677H9.2593v12.3335h6.8633z"/>
  <path fill="#eb001b" d="M9.6951 7.8438A7.83 7.83 0 0 1 12.691 1.677 7.844 7.844 0 0 0 4.4156.7888a7.8437 7.8437 0 1 0 8.2754 13.2217 7.83 7.83 0 0 1-2.9959-6.1668"/>
  <path fill="#f79e1b" d="M25.3815 7.8438a7.8432 7.8432 0 0 1-12.6905 6.1667 7.846 7.846 0 0 0 2.9958-6.1668A7.846 7.846 0 0 0 12.691 1.677a7.843 7.843 0 0 1 8.2752-.8882 7.844 7.844 0 0 1 4.4153 7.055m-.7483 4.8604v-.2525h.1018v-.0515h-.2593v.0515h.1019v.2525zm.5034 0v-.3044h-.0795l-.0914.2094-.0914-.2094h-.0796v.3044h.0562v-.2297l.0857.198h.0582l.0857-.1985v.2302z"/>
</symbol>
<symbol id="partner-paypal" fill="none" viewBox="0 0 35 10">
  <path fill="#253b80" fill-rule="evenodd" d="M4.1463.001H1.4588a.3734.3734 0 0 0-.369.315L.0028 7.2069a.2237.2237 0 0 0 .2217.2586h1.283a.3734.3734 0 0 0 .369-.3155l.2932-1.8585a.373.373 0 0 1 .3686-.3155h.8507c1.7704 0 2.792-.8566 3.059-2.554.1202-.7426.005-1.3261-.3428-1.7349C5.7233.2384 5.0457.001 4.1462.001m.31 2.5167c-.147.9643-.8837.9643-1.5962.9643h-.4055l.2845-1.801a.224.224 0 0 1 .2212-.189h.1859c.4853 0 .9431 0 1.1797.2767.141.165.1843.4102.1304.749m7.7236-.0309h-1.287a.224.224 0 0 0-.2213.1891l-.057.3599-.09-.1304c-.2786-.4044-.8998-.5395-1.52-.5395-1.4222 0-2.6368 1.077-2.8734 2.5878-.123.7535.0518 1.4742.4794 1.9767.3922.462.9534.6546 1.621.6546 1.1459 0 1.7815-.7367 1.7815-.7367l-.0575.3576a.2238.2238 0 0 0 .2208.2593h1.1593a.3734.3734 0 0 0 .369-.3155l.6956-4.4043a.2232.2232 0 0 0-.2204-.2586m-1.794 2.5046c-.1242.7351-.7078 1.2286-1.452 1.2286-.3737 0-.6724-.1198-.8641-.347-.1903-.2254-.2626-.5465-.202-.904.116-.729.7093-1.2385 1.4422-1.2385.3654 0 .6625.1213.8582.3504.196.2315.2739.5545.2177.9105m7.3549-2.5048h1.2933c.1811 0 .2868.2031.1839.3517l-4.3014 6.2081a.373.373 0 0 1-.307.1604h-1.2917c-.1819 0-.2881-.2047-.1828-.3537l1.3394-1.8903-1.4245-4.18a.224.224 0 0 1 .2126-.2962h1.2708a.3745.3745 0 0 1 .3584.2664l.756 2.5246 1.7838-2.6271a.375.375 0 0 1 .3092-.1639" clip-rule="evenodd"/>
  <path fill="#179bd7" fill-rule="evenodd" d="m31.7633 7.2062 1.103-7.0167A.2245.2245 0 0 1 33.0872 0h1.2417a.224.224 0 0 1 .2208.259L33.462 7.1492a.373.373 0 0 1-.369.3155h-1.1089a.2236.2236 0 0 1-.2208-.2586M23.3164.0004h-2.688a.3734.3734 0 0 0-.3686.315l-1.087 6.8908a.2236.2236 0 0 0 .221.2586h1.3792a.261.261 0 0 0 .2578-.2208l.3085-1.9532a.373.373 0 0 1 .3686-.3155h.8503c1.7708 0 2.7922-.8566 3.0594-2.554.1205-.7426.0047-1.3261-.343-1.7349-.3817-.4486-1.0588-.686-1.9582-.686m.31 2.5167c-.1465.9643-.8834.9643-1.5963.9643h-.4051l.2849-1.8009a.223.223 0 0 1 .2208-.189h.1859c.485 0 .9432 0 1.1796.2766.1412.1651.1841.4103.1302.749m7.7228-.0309h-1.286a.223.223 0 0 0-.221.1891l-.0569.3598-.0904-.1303c-.2786-.4044-.8994-.5395-1.5196-.5395-1.4222 0-2.6365 1.077-2.8731 2.5878-.1225.7535.0515 1.4741.479 1.9767.393.462.9535.6546 1.6211.6546 1.1458 0 1.7812-.7368 1.7812-.7368l-.0572.3577a.224.224 0 0 0 .2216.2593h1.1588a.3734.3734 0 0 0 .3686-.3155l.696-4.4043a.2244.2244 0 0 0-.2221-.2586m-1.7938 2.5046c-.1234.7351-.7077 1.2286-1.4521 1.2286-.373 0-.6723-.1198-.8641-.347-.1903-.2254-.2617-.5465-.2019-.904.1166-.729.7092-1.2385 1.4421-1.2385.3655 0 .6625.1213.8584.3504.1967.2315.2746.5544.2176.9105" clip-rule="evenodd"/>
</symbol>
<symbol id="partner-applepay" fill="none" viewBox="0 0 27 12">
  <path fill="#000008" d="M4.9923 1.445c.311-.389.522-.9113.4664-1.445-.4553.0226-1.0108.3003-1.3325.6896-.2887.3334-.5444.8776-.4777 1.3889.511.0443 1.0216-.2554 1.3438-.6335m.4606.7334c-.7422-.0443-1.3732.4212-1.7276.4212-.3546 0-.8973-.399-1.4843-.3882-.764.0112-1.473.4432-1.8607 1.1302-.7974 1.3745-.2104 3.4133.565 4.5327.3766.5538.8305 1.1636 1.4285 1.1417.565-.0222.7865-.3659 1.4733-.3659.6863 0 .8858.3659 1.484.3548.6202-.011 1.008-.554 1.3846-1.1084.432-.6313.6089-1.241.62-1.2744-.0112-.011-1.196-.4656-1.207-1.8287-.0113-1.1413.9302-1.6841.9745-1.7178-.5316-.7863-1.3623-.875-1.6503-.8973m6.462-1.5445c1.6131 0 2.7363 1.1119 2.7363 2.7307 0 1.6247-1.1463 2.7423-2.7767 2.7423h-1.786V8.947H8.7982V.6338zm-1.8264 4.39h1.4806c1.1235 0 1.7629-.605 1.7629-1.6535s-.6394-1.6476-1.7571-1.6476h-1.4864zm4.8998 2.2007c0-1.0601.8123-1.711 2.2527-1.7918l1.6591-.0979v-.4666c0-.674-.4552-1.0773-1.2155-1.0773-.7203 0-1.1697.3456-1.279.8872h-1.1752c.0691-1.0947 1.0023-1.9012 2.5002-1.9012 1.4691 0 2.408.7778 2.408 1.9933V8.947h-1.1925v-.9967h-.0287c-.3514.6741-1.1177 1.1004-1.9126 1.1004-1.1868 0-2.0165-.7374-2.0165-1.8262m3.9118-.5473V6.199l-1.4922.0922c-.7432.0519-1.1637.3802-1.1637.8987 0 .53.4379.8757 1.1062.8757.8698 0 1.5497-.5992 1.5497-1.3884m2.3644 4.4994v-1.0083c.0921.023.2994.023.4032.023.5761 0 .8872-.2419 1.0772-.864 0-.0116.1096-.3687.1096-.3745l-2.1891-6.0664h1.3479l1.5326 4.9315h.0229l1.5326-4.9315h1.3135l-2.2701 6.3774c-.5182 1.4692-1.1174 1.9415-2.3733 1.9415-.1038 0-.4149-.0115-.507-.0287"/>
</symbol>
<symbol id="partner-googlepay" fill="none" viewBox="0 0 29 12">
  <path fill="#3c4043" d="M13.3296 8.7535h-1.0485V.5952h2.7795c.7044 0 1.3051.2348 1.7966.7044q.7535.7045.7535 1.7202c0 .6935-.2512 1.2668-.7535 1.731-.486.4641-1.0867.6935-1.7966.6935h-1.731zm0-7.1535v2.845h1.7528c.415 0 .7645-.142 1.0376-.4205.2785-.2785.4204-.617.4204-.9993 0-.3768-.1419-.7099-.4204-.9884-.2731-.2894-.6171-.4314-1.0376-.4314h-1.7528zm7.0223 1.387q1.1631 0 1.8347.6225t.6717 1.7037v3.4403h-.9993V7.978h-.0437c-.4314.639-1.0102.9557-1.731.9557-.6171 0-1.1304-.1802-1.5454-.5461s-.6225-.8191-.6225-1.3652q0-.8682.6553-1.376c.4368-.344 1.0211-.5134 1.7474-.5134.6225 0 1.1358.1147 1.5344.344v-.2402c0-.3659-.1419-.6717-.4314-.9283s-.6279-.3823-1.0156-.3823c-.5843 0-1.0485.2457-1.387.7427l-.9229-.5789c.5079-.7371 1.2614-1.103 2.2553-1.103m-1.3543 4.0518c0 .273.1147.5024.3495.6826.2293.1802.5024.273.8136.273q.6636 0 1.1795-.4914c.3441-.3277.5188-.71.5188-1.1522-.3276-.2567-.7809-.3877-1.3652-.3877-.4259 0-.7808.1037-1.0648.3057-.2894.213-.4314.4697-.4314.77m9.5617-3.8716-3.4948 8.0382h-1.0813l1.2997-2.8123-2.3044-5.2259h1.1413l1.66 4.0082h.0218l1.6164-4.0082z"/>
  <path fill="#4285f4" d="M9.1592 4.7836c0-.3419-.0306-.669-.0874-.9835H4.6771v1.802l2.531.0005c-.1026.5996-.433 1.1108-.9392 1.4515v1.1691h1.5066c.8797-.8142 1.3837-2.0177 1.3837-3.4396"/>
  <path fill="#34a853" d="M6.2694 7.0542c-.4194.2828-.9594.4483-1.5912.4483-1.2205 0-2.2558-.8224-2.6266-1.931H.4976v1.2058C1.2674 8.3052 2.85 9.3536 4.6781 9.3536c1.2636 0 2.3251-.4155 3.0978-1.1309z"/>
  <path fill="#fabb05" d="M1.9052 4.677c0-.3112.0519-.612.1464-.895V2.5764H.4975A4.654 4.654 0 0 0 0 4.6771a4.66 4.66 0 0 0 .4975 2.1007l1.554-1.2057a2.82 2.82 0 0 1-.1463-.895"/>
  <path fill="#e94235" d="M4.6782 1.8512c.6897 0 1.3073.2375 1.7949.7017l1.3351-1.334C6.9973.4635 5.9402 0 4.6782 0 2.8505 0 1.2674 1.0484.4975 2.5763l1.554 1.2058c.3708-1.1086 1.4062-1.931 2.6267-1.931"/>
</symbol>
<!-- versace -->
<symbol id="versace"  fill="none" viewBox="0 0 167 34">
  <path fill="currentColor" fill-rule="evenodd" d="M150.179.65566h16.303v2.5977c-.474-.159-.97-.24096-1.469-.24275h-9.371V15.1491h9.116c.655 0 1.238-.0719 1.723-.1943v2.5863c-.413-.0968-.982-.1459-1.687-.1459h-9.152v12.5514h9.091c.499 0 1.093-.0726 1.748-.2307v2.7921h-16.278c.13-.491.196-.997.195-1.505V2.19691c0-.63074-.073-1.15256-.219-1.54125m-3.774 8.26653-4.71-.0356c-.231-2.64683-1.748-5.20894-5.086-5.68092-7.15-.64356-9.165 7.20933-8.983 12.95153.183 5.535 1.068 14.0443 8.449 14.0443 3.096 0 6.069-3.1808 5.972-5.8632l4.358-.0356c-.316 5.535-6.664 8.7392-9.687 8.8489-10.329.3523-14.652-6.531-14.87-16.3523C121.654 7.90346 125.296 0 135.504 0c8.74.12173 10.427 5.29294 10.901 8.92219M72.9408 28.8901l3.1203-2.6098c1.6259 2.6832 2.9614 3.9083 6.1906 3.9083 3.2769 0 6.0333-1.9904 6.0333-5.51 0-1.7363-.7048-3.1566-2.1001-4.2244-.6321-.4983-2.2339-1.3597-4.759-2.5614-3.7752-1.8082-7.4528-4.1639-7.4528-8.89729 0-5.9728 5.0736-8.60681 10.4264-8.80187 3.1686-.12103 7.1019 1.6281 8.6915 3.59364l-3.1679 2.43967a6.624 6.624 0 0 0-2.4308-2.55155 6.6243 6.6243 0 0 0-3.3954-.94386c-4.0428 0-7.2471 4.6857-3.8969 7.91486.8493.8251 2.5863 1.8445 5.2324 3.0583 4.2237 1.9791 7.8288 4.3454 7.8288 9.5778 0 1.8083-.4734 3.4954-1.4082 5.0374-1.8808 3.1074-5.0252 4.6615-9.4191 4.6615-5.0501 0-6.0447-1.1533-9.4931-4.0913M28.4893.65566h16.2889v2.5977a4.664 4.664 0 0 0-1.4679-.24275h-9.3707V15.1491h9.1158c.6557 0 1.2387-.0719 1.7235-.1943v2.5863c-.4129-.0968-.9831-.1459-1.6743-.1459h-9.165v12.5514h9.0916c.4977 0 1.0928-.0726 1.7477-.2307v2.7921H28.5143c.1189-.4929.1798-.9979.1815-1.505V2.19691c0-.63074-.0733-1.15256-.2065-1.54125M0 .65566h5.92368v.29187c0 .26696.08472.61864.23066 1.06785L14.5049 27.1545l8.5705-25.24876c.1331-.42429.2064-.83718.2064-1.25008h2.8768c-.2912.50971-.5097.95963-.6436 1.35972L15.7308 31.2095c-.0969.2791-.1816.7162-.2542 1.2992h-4.8558a8.165 8.165 0 0 0-.3275-1.2992L.70407 2.24603A49.1 49.1 0 0 0 .01138.65566zM62.9145 17.262c3.8841-.7652 6.8584-3.7388 6.8584-7.98743 0-5.57271-4.6615-8.61963-9.8811-8.61963h-9.5409c.1332.48623.2065.99595.2065 1.52987V30.9774c0 .6194-.0733 1.1412-.2065 1.5299h5.681a5.614 5.614 0 0 1-.2065-1.5299V17.7476l1.8203.1943 9.5174 14.5654h5.7172zm-.9831-2.4275c-1.0316.7275-2.2703 1.0913-3.6905 1.0913h-2.4276V2.97572h2.1727c1.8581 0 3.3018.4606 4.334 1.3825 1.4082 1.27572 2.1243 2.99922 2.1243 5.15982 0 2.33076-.8379 4.10336-2.5129 5.31716m58.9696 16.3501L110.293 1.71211c-.118-.34077-.188-.69639-.207-1.05645h-4.589c0 .37659-.061.77667-.207 1.17747L95.0096 31.1853c-.1346.4236-.3524.8614-.6436 1.3227h2.9615c-.0114-.4855.0491-.9347.183-1.3227l3.0455-8.6559h11.714l3.011 8.6566c.158.472.23.9091.23 1.322h6.143c-.353-.4976-.607-.9468-.753-1.3227m-19.543-10.9988 4.952-14.38384 5.087 14.38384z" clip-rule="evenodd"/>
</symbol>
<!-- zara -->
<symbol xmlns="http://www.w3.org/2000/svg" id="zara" fill="currentColor" viewBox="0 0 91 38">
  <g clip-path="url(#a)">
    <path fill="currentColor" d="M86.3324 36.8682 72.8501.0322 72.841.008h-.2661l-2.7764 7.5696-5.0544 13.7808-.0118-.0109c-1.7518-1.5339-4.2232-2.4928-7.3358-2.8498l-.9493-.0973.9418-.1198c5.1329-.9153 8.5833-4.1323 8.5833-8.0082 0-5.315-5.0375-9.0247-12.2534-9.0247H38.7052v.269h4.3626V28.98L32.4727.0322l-.0095-.0243h-.2661l-2.7764 7.5696-10.7084 29.1959-.0659.0076q-.2745.0335-.543.0536c-.2694.021-.5372.0335-.8058.0335h-10.82L27.0449 1.5166l.1529-.2657H2.0432v10.9358h.267c.0473-5.3266 3.1733-10.6701 10.08-10.6701h8.3324L0 37.133h27.9173V26.6557h-.2669c-.0364 4.6428-2.6885 9.0525-8.4557 10.0482l-.1833.031 4.3922-11.9802h12.3039l4.4335 12.1135h-4.3735v.2649h17.1658v-.2649h-4.3922V18.5956h5.068c5.1574 0 8.1154 2.2865 8.1154 6.2713v3.2413c0 .3571.0245.8793.0515 1.316v.0159l-2.724 7.4264h-3.5586v.2649h7.3662v-.2649h-3.5203l2.4806-6.7625c.0051.0654.0077.1048.0077.1048l.0684.6093.0659.4031c.4139 2.4937 1.375 4.3268 2.8558 5.4483l.2128.1534c1.125.7762 2.523 1.1693 4.1574 1.1693 2.1648 0 3.6083-.5356 4.8001-1.7962l-.1562-.1459c-1.0981 1.0058-2.0196 1.4132-3.1742 1.4132-1.9673 0-2.9968-2.3679-2.9968-4.7031v-4.5414a10.13 10.13 0 0 0-.5263-3.3167l-.0489-.1408v-.005h8.9995l4.4335 12.1136h-4.3734v.2648H91v-.2648zM23.5015 24.4898l6.0612-16.525 6.0477 16.525zm25.0423-6.1599V1.5166h3.8684c5.1676 0 7.8958 3.0485 7.8958 8.8128 0 6.1305-1.566 8.0005-6.6989 8.0005zm18.4369 6.1599-.0262-.0654a8.2 8.2 0 0 0-1.7155-2.5984l-.2534-.2515-.027-.0251L69.937 7.9649l6.0476 16.5249z"/>
  </g>
  <defs>
    <clipPath id="a">
      <path fill="currentColor" d="M0 0h91v38H0z"/>
    </clipPath>
  </defs>
</symbol>
<!-- gucci -->
<symbol  fill="currentColor"  viewBox="0 0 156 36" id="gucci" xmlns="http://www.w3.org/2000/svg">
<g clip-path="url(#prefix__clip0_22_365)"><path d="M141.312 11.293l-.291.093c-1.134-2.344-2.753-4.21-4.859-5.597-2.073-1.388-4.68-2.081-7.822-2.081a12.13 12.13 0 00-5.004 1.063 12.435 12.435 0 00-4.178 2.914c-1.166 1.234-2.105 2.73-2.818 4.487-.713 1.757-1.069 3.7-1.069 5.828 0 2.127.356 4.07 1.069 5.828.713 1.757 1.652 3.268 2.818 4.532a12.757 12.757 0 004.178 2.868 12.601 12.601 0 005.004 1.017c3.11 0 5.636-.462 7.579-1.387 1.976-.956 3.644-2.405 5.005-4.348l.291.092-.097 2.96a13.574 13.574 0 01-2.575 1.99 19.329 19.329 0 01-3.158 1.433c-1.101.37-2.251.648-3.449.833a20.219 20.219 0 01-3.595.324c-2.494 0-4.875-.386-7.142-1.157-2.267-.77-4.259-1.85-5.976-3.237a15.864 15.864 0 01-4.081-5.088c-1.004-2.004-1.506-4.224-1.506-6.66s.502-4.641 1.506-6.614a15.71 15.71 0 014.081-5.135c1.717-1.418 3.709-2.497 5.976-3.237 2.267-.771 4.648-1.157 7.142-1.157 1.198 0 2.397.093 3.595.278 1.198.185 2.348.478 3.449.879 1.134.37 2.187.848 3.158 1.434.972.555 1.83 1.202 2.575 1.942l.194 4.903zm-107.06 8.835a4.866 4.866 0 00-1.02.601c-.324.247-.486.586-.486 1.018v5.689c-1.555 2.128-3.547 3.777-5.976 4.949-2.43 1.172-5.118 1.758-8.065 1.758-2.494 0-4.875-.386-7.142-1.157-2.267-.77-4.26-1.85-5.976-3.237a15.87 15.87 0 01-4.08-5.088C.501 22.657 0 20.436 0 18c0-2.437.502-4.641 1.506-6.615a15.717 15.717 0 014.081-5.134c1.717-1.418 3.709-2.497 5.976-3.238 2.267-.77 4.648-1.156 7.142-1.156 1.198 0 2.397.093 3.595.278 1.198.185 2.348.478 3.45.878 1.133.37 2.186.848 3.157 1.434.972.555 1.83 1.203 2.576 1.943l.194 4.903-.291.092c-1.134-2.344-2.753-4.21-4.859-5.597-2.073-1.387-4.68-2.081-7.822-2.081-1.749 0-3.417.354-5.004 1.064a12.438 12.438 0 00-4.178 2.914c-1.166 1.233-2.106 2.729-2.818 4.486-.713 1.758-1.069 3.7-1.069 5.828 0 2.097.34 4.024 1.02 5.782.713 1.757 1.652 3.268 2.818 4.532a13.382 13.382 0 004.178 2.914 12.72 12.72 0 005.053 1.018c3.369 0 6.251-.617 8.648-1.85v-8.65c0-.431-.178-.77-.534-1.017a5.596 5.596 0 00-.972-.602l.045-.23c.161.027.453.058.874.091l1.312.093h4.179c.388-.029.76-.06 1.117-.093.356-.028.631-.058.826-.092l.052.232zm35.19-17.299a5.496 5.496 0 00-.972.602c-.324.246-.502.709-.534 1.387-.03.74-.062 1.68-.097 2.822 0 1.11-.014 2.374-.044 3.792 0 1.419-.015 2.96-.044 4.626v5.18c-.03 2.004-.29 3.716-.778 5.134-.486 1.419-1.134 2.606-1.944 3.561-.777.957-1.651 1.712-2.623 2.267-.94.555-1.879.971-2.818 1.249-.907.308-1.765.493-2.575.555-.81.092-1.441.139-1.895.139-1.846 0-3.627-.232-5.344-.694-1.717-.432-3.223-1.14-4.518-2.128-1.296-.987-2.332-2.266-3.11-3.839-.777-1.572-1.166-3.484-1.166-5.735V11.71c0-1.48-.014-2.806-.044-3.978 0-1.202-.015-2.174-.044-2.914-.03-.678-.208-1.14-.535-1.387a5.593 5.593 0 00-.971-.602l.044-.23c.162.027.421.058.778.091.389.028.777.06 1.166.092.421 0 .826.015 1.215.043h1.748c.39-.028.794-.043 1.215-.043.421-.028.81-.058 1.166-.092.389-.028.664-.059.826-.092l.044.231a4.866 4.866 0 00-1.02.602c-.292.246-.454.709-.486 1.387-.03.74-.062 1.712-.097 2.914v14.015c0 3.36.826 5.843 2.478 7.447 1.651 1.603 4.097 2.405 7.336 2.405.94 0 2.008-.108 3.206-.324a8.752 8.752 0 003.353-1.48c1.069-.74 1.96-1.789 2.672-3.146.745-1.357 1.117-3.16 1.117-5.411 0-2.436-.015-4.518-.044-6.244 0-1.758-.015-3.253-.045-4.487 0-1.264-.014-2.343-.044-3.238-.03-.894-.062-1.711-.097-2.451-.03-.678-.208-1.141-.534-1.388a5.594 5.594 0 00-.972-.601l.045-.231c.356.061.76.123 1.214.185.454.028.875.042 1.263.042.357 0 .761-.014 1.215-.042.486-.061.907-.123 1.263-.185l.031.231zm35.254 8.464l-.291.093c-1.134-2.344-2.753-4.21-4.859-5.597-2.073-1.388-4.68-2.081-7.822-2.081-1.749 0-3.417.354-5.004 1.063a12.439 12.439 0 00-4.178 2.914c-1.166 1.234-2.106 2.73-2.818 4.487-.713 1.757-1.069 3.7-1.069 5.828 0 2.127.356 4.07 1.069 5.828.713 1.757 1.652 3.268 2.818 4.532a12.761 12.761 0 004.178 2.868 12.603 12.603 0 005.004 1.017c3.11 0 5.636-.462 7.58-1.387 1.975-.956 3.643-2.405 5.003-4.348l.292.092-.097 2.96a13.574 13.574 0 01-2.575 1.99 19.39 19.39 0 01-3.158 1.433c-1.101.37-2.25.648-3.45.833a20.23 20.23 0 01-3.594.324c-2.495 0-4.875-.386-7.142-1.157-2.268-.77-4.26-1.85-5.976-3.237a15.868 15.868 0 01-4.081-5.088c-1.004-2.004-1.506-4.224-1.506-6.66s.502-4.641 1.506-6.614a15.715 15.715 0 014.08-5.135c1.717-1.418 3.71-2.497 5.977-3.237 2.267-.771 4.648-1.157 7.142-1.157 1.198 0 2.396.093 3.595.278 1.198.185 2.348.478 3.45.879a15.27 15.27 0 013.157 1.434c.972.555 1.83 1.202 2.575 1.942l.194 4.903zm51.26 22.063a10.921 10.921 0 00-.826-.092c-.356 0-.745-.014-1.166-.043-.421 0-.826-.014-1.215-.042h-2.914c-.389.028-.778.06-1.166.092a9.79 9.79 0 00-.826.093l-.045-.186c.324-.154.648-.354.972-.601.324-.247.502-.71.534-1.388.03-.74.045-1.51.045-2.313.029-.801.044-1.711.044-2.729V9.82c0-1.017-.015-1.912-.044-2.682 0-.802-.015-1.573-.045-2.313-.029-.678-.207-1.141-.534-1.388a4.434 4.434 0 00-.972-.647l.045-.185c.194.061.469.108.826.139.388 0 .777.014 1.166.042.421.028.826.042 1.214.042h1.7a16.81 16.81 0 011.215-.042c.421-.028.81-.06 1.166-.092.389-.029.664-.06.826-.093l.044.186c-.356.154-.696.37-1.02.647-.292.247-.454.71-.486 1.388-.03.74-.062 1.51-.097 2.312v21.74c.029.8.062 1.572.097 2.312.029.678.191 1.14.486 1.387.324.247.664.447 1.02.602l-.044.181z" fill="#fff"/></g><defs><clipPath id="prefix__clip0_22_365"><path fill="#fff" d="M0 0h156v36H0z"/></clipPath></defs>
</symbol>

<symbol  viewBox="0 0 194 32" id="prada" fill="currentColor" xmlns="http://www.w3.org/2000/svg"><g clip-path="url(#prefix__clip0_22_367)"><path fill-rule="evenodd" clip-rule="evenodd" d="M0 .902l2.932 3.306v24.203L.76 31.577l13.31.02-2.4-2.913-.249-8.716 12.834.07c3.89-1.296 7.888-4.056 8.08-9.638-.061-5.41-3.364-8.88-7.198-9.57L0 .903zM10.945 2.45v15.548l9.846.07c2.24-1.806 3.939-3.19 3.87-7.527-.031-3.537-.778-6.62-4.074-8.09l-9.642-.001zM38.494.725l2.932 3.308v24.202l-2.173 3.168 13.308.02-2.399-2.915-.249-8.716h.054l13.75 11.729 11.41-.094-10.414-9.008h-8.694l-3.065-2.61 9.792.053c3.89-1.295 7.888-4.056 8.081-9.638-.06-5.409-3.363-8.879-7.198-9.568l-25.135.07zm10.944 1.548v15.548l9.846.071c2.241-1.806 3.939-3.19 3.87-7.528-.031-3.536-.778-6.621-4.074-8.09h-9.642zM86.113.691H97.59l14.939 27.72c.646 2.14 2.58 1.876 3.87 2.814h-14.463l2.173-.68-.136-2.063-3.735-5.98-12.698.07-2.716 5.77c-.09.656-.792 1.154-.272 1.97l1.02.984-6.248-.141 2.717-.844 10.252-21.6V7.235l-4.331-5.779-1.848-.764zm2.229 19.907l5.274-9.986 5.491 9.93-10.765.056zM163.715.75h11.475l14.939 27.72c.647 2.14 2.58 1.877 3.871 2.815h-14.464l2.173-.681-.136-2.064-3.734-5.98-12.698.072-2.716 5.768c-.092.657-.793 1.155-.273 1.97l1.019.985-6.246-.14 2.717-.844 10.252-21.6V7.293l-4.332-5.777-1.847-.765zm2.229 19.908l5.274-9.985 5.491 9.927-10.765.058zM120.367.402l20.443.113c6.584 1.542 10.772 5.564 12.071 12.58l-.055 5.472c-1.2 6.252-5.133 10.565-12.07 12.748l-20.498.058-.003-.662c3.117-.236 3.366-.591 3.374-2.441V3.335c-.035-1.368-.309-2.22-3.317-2.313l.055-.62zm11.621 2.134l-.02 26.977c2.696.01 5.035.262 6.357-.412 2.994-1.368 4.385-3.468 4.512-5.441l-.072-15.93c.001-2.548-2.765-4.347-4.361-4.816-1.142-.423-3.421-.44-6.416-.378z" fill="#fff" stroke="#fff" stroke-width="1.024" stroke-miterlimit="2.613"/></g><defs><clipPath id="prefix__clip0_22_367"><path fill="#fff" d="M0 0h194v32H0z"/></clipPath></defs>
</symbol>

<symbol fill="currentColor" id='calvin-klein' viewBox="0 0 207 34">
  <path fill="currentColor" fill-rule="evenodd" d="M16.6481 30.4522c-7.2386 0-13.4173-6.5655-13.4173-13.7267 0-7.1348 6.0493-13.8307 13.3653-13.8307 4.8092 0 8.2721 2.3267 11.0906 5.972h3.5414c-1.06-1.9133-2.1973-3.6708-3.9293-5.0413C24.3255 1.4215 20.4735 0 16.6481 0 7.4707 0 0 7.5746 0 16.7c0 9.1508 7.5746 16.6481 16.7 16.6481 3.7227 0 7.368-1.3695 10.2893-3.6707 1.8359-1.4734 3.128-3.3867 4.3693-5.3519h-3.5414c-2.7931 3.6453-6.3599 6.1267-11.1691 6.1267m36.7093-17.4494c-2.2228-2.8694-5.248-4.6788-8.996-4.6788-6.7214 0-12.2534 5.4558-12.2534 12.1772 0 6.7202 5.5585 12.2268 12.2534 12.2268 3.9039 0 6.6174-1.6292 8.996-4.6279v4.0841h2.9213V8.8922h-2.9213zm-9.1508 17.036c-5.1452 0-9.2039-4.472-9.2039-9.5122 0-5.0159 4.0333-9.5134 9.2039-9.5134 5.1441 0 9.1508 4.4986 9.1508 9.5134 0 5.0402-4.0332 9.5122-9.1508 9.5122m15.6135 2.1454h3.1291V.6709h-3.1291zm14.9426-3.6972L66.8521 8.8922h-3.1026l9.4879 23.292h3.1534l9.4625-23.292h-3.0506zm12.3827 3.6972h3.128V8.8922h-3.128zm0-26.2907h3.128V.6709h-3.128zm16.5976 2.4294c-2.948 0-5.0416 1.5519-6.9803 3.6199V8.8922h-2.8959v23.292h3.076V17.991c-.0254-3.7481 3.0762-6.9789 6.8512-6.9789 4.729 0 7.108 4.1107 7.108 8.3506v12.8226h2.895V19.3627c.001-6.0493-3.54-11.0398-10.054-11.0398M142.829.671l-14.218 18.0706V.6709h-3.076v31.5133h3.076v-8.66l4.033-5.0148 10.263 13.6748h3.905l-12.204-16.1573L146.812.6709zm5.119 31.5133H151V.6709h-3.052zm28.308-17.424c-2.12-3.9559-6.36-6.4373-10.833-6.4373-6.668 0-12.305 5.5586-12.305 12.228 0 6.7202 5.688 12.176 12.359 12.176 3.178 0 6.308-1.2667 8.607-3.464 1.397-1.3186 2.224-2.9733 2.972-4.7053h-3.281c-1.656 3.2319-4.577 5.4801-8.353 5.4801-2.299 0-4.548-.9307-6.254-2.5079-1.76-1.6016-2.534-3.5679-2.871-5.8935h21.484c.002-2.4295-.336-4.7561-1.525-6.8761m-19.854 4.188c.932-4.3681 4.369-7.9361 9.075-7.9361 3.955 0 8.195 2.4306 9.126 7.9361zm23.655 13.236h3.075V8.8922h-3.075zm0-26.1868h3.075V.6709h-3.075zm16.597 2.3255c-3 0-5.094 1.5519-7.059 3.6199V8.8922h-2.947v23.292h3.103V17.991c-.026-3.7735 3.154-6.9789 6.953-6.9789 4.707 0 7.189 4.1107 7.189 8.3506v12.8226h2.895V19.3627c0-6.0493-3.595-11.0398-10.134-11.0398" clip-rule="evenodd"/>
</symbol>
<symbol fill="none" viewBox="0 0 24 24" id="icon-arrow-left">
  <path fill="#000" d="m9.70406 4.4541-6.75 6.75a1.1244 1.1244 0 0 0-.24487.3655 1.1244 1.1244 0 0 0-.08602.4314c0 .148.02923.2947.08602.4314.05678.1367.13999.2609.24487.3655l6.75 6.75c.21135.2113.49804.33.79684.33.2989 0 .5856-.1187.7969-.33.2114-.2114.3301-.498.3301-.7969s-.1187-.5856-.3301-.7969L6.46875 13.125H20.25c.2984 0 .5845-.1185.7955-.3295.211-.2109.3295-.4971.3295-.7955 0-.2983-.1185-.5845-.3295-.7955-.211-.2109-.4971-.3295-.7955-.3295H6.46875l4.83005-4.82902c.2113-.21135.33-.49799.33-.79688 0-.29888-.1187-.58553-.33-.79687-.2114-.21135-.498-.33008-.7969-.33008s-.58556.11873-.7969.33008z"/>
</symbol>
<symbol fill="none" viewBox="0 0 24 24" id="icon-arrow-right">
  <path fill="#000" d="m14.2959 4.4541 6.75 6.75c.1049.1045.1881.2287.2449.3655.0568.1367.086.2833.086.4314 0 .148-.0292.2947-.086.4314s-.14.2609-.2449.3655l-6.75 6.75c-.2113.2113-.498.33-.7968.33-.2989 0-.5856-.1187-.7969-.33-.2114-.2114-.3301-.498-.3301-.7969s.1187-.5856.3301-.7969l4.8291-4.8291H3.75c-.29837 0-.58452-.1185-.7955-.3295-.21097-.2109-.3295-.4971-.3295-.7955 0-.2983.11853-.5845.32951-.7955.21097-.2109.49712-.3295.79549-.3295h13.7813l-4.83-4.82902c-.2114-.21135-.3301-.49799-.3301-.79688 0-.29888.1187-.58553.3301-.79687.2113-.21135.4979-.33008.7968-.33008s.5856.11873.7969.33008z"/>
</symbol>
<symbol id="email" fill="none" viewBox="0 0 24 24">
  <path fill="#000" fill-opacity=".4" d="M21 4.125H3A1.125 1.125 0 0 0 1.875 5.25V18a1.875 1.875 0 0 0 1.875 1.875h16.5A1.875 1.875 0 0 0 22.125 18V5.25A1.125 1.125 0 0 0 21 4.125m-9 7.849L5.892 6.375h12.216zM8.7 12l-4.575 4.192V7.808zm1.664 1.526.876.804a1.125 1.125 0 0 0 1.52 0l.876-.804 4.472 4.099H5.892zM15.301 12l4.574-4.192v8.385z"/>
</symbol>
</svg>